<svg width="28" height="28" viewBox="0 0 28 28" fill="none" xmlns="http://www.w3.org/2000/svg">
<path d="M7.5 15C11.6421 15 15 11.6421 15 7.5C15 3.35786 11.6421 0 7.5 0C3.35786 0 0 3.35786 0 7.5C0 11.6421 3.35786 15 7.5 15Z" fill="white"/>
<path d="M22.5 15C24.9853 15 27 12.9853 27 10.5C27 8.01472 24.9853 6 22.5 6C20.0147 6 18 8.01472 18 10.5C18 12.9853 20.0147 15 22.5 15Z" fill="white"/>
<path d="M8 25C10.2091 25 12 23.2091 12 21C12 18.7909 10.2091 17 8 17C5.79086 17 4 18.7909 4 21C4 23.2091 5.79086 25 8 25Z" fill="white"/>
<path d="M22 27C24.7614 27 27 24.7614 27 22C27 19.2386 24.7614 17 22 17C19.2386 17 17 19.2386 17 22C17 24.7614 19.2386 27 22 27Z" fill="white"/>
</svg>
